<?xml version="1.0" encoding="UTF-8"?>
<svg id="Capa_2" data-name="Capa 2" xmlns="http://www.w3.org/2000/svg" xmlns:xlink="http://www.w3.org/1999/xlink" viewBox="0 0 145.1 169.73">
  <defs>
    <style>
      .cls-1, .cls-2 {
        fill: none;
      }

      .cls-2, .cls-3 {
        stroke: #fb5d23;
        stroke-miterlimit: 10;
        stroke-width: 3px;
      }

      .cls-4 {
        clip-path: url(#clippath);
      }

      .cls-5 {
        fill: #fb5d23;
      }

      .cls-6 {
        fill: #ff8ea3;
      }

      .cls-7 {
        fill: #b6d24c;
      }

      .cls-8 {
        fill: #d5f3ff;
      }

      .cls-3 {
        fill: #ffc7da;
      }
    </style>
    <clipPath id="clippath">
      <path class="cls-1" d="m96.68,1.5c-10.77,0-20.53,4.3-27.68,11.27C61.85,5.8,52.09,1.5,41.32,1.5,19.42,1.5-.54,19.36,1.67,41.15s55.36,75.36,67.33,75.36c13.48,0,63.36-49.79,67.33-75.36C139.68,19.51,118.57,1.5,96.68,1.5Z"/>
    </clipPath>
  </defs>
  <g id="Capa_1-2" data-name="Capa 1">
    <path class="cls-5" d="m76.25,169.73h0c-3.01,0-11.99-4.27-11.99-7.29l6.53-43.27c0-3.01,2.44-5.46,5.46-5.46h0c3.01,0,5.46,2.44,5.46,5.46v45.1c0,3.01-2.44,5.46-5.46,5.46Z"/>
    <path class="cls-5" d="m105.1,8.79c-10.77,0-20.53,4.3-27.68,11.27-7.15-6.97-16.91-11.27-27.68-11.27C27.84,8.79,7.88,26.66,10.09,48.44s55.36,75.36,67.33,75.36c13.48,0,63.36-49.79,67.33-75.36,3.36-21.64-17.75-39.65-39.65-39.65Z"/>
    <rect class="cls-3" x="65.34" y="109.52" width="10.91" height="56.01" rx="5.46" ry="5.46"/>
    <path class="cls-3" d="m96.68,1.5c-10.77,0-20.53,4.3-27.68,11.27C61.85,5.8,52.09,1.5,41.32,1.5,19.42,1.5-.54,19.36,1.67,41.15s55.36,75.36,67.33,75.36c13.48,0,63.36-49.79,67.33-75.36C139.68,19.51,118.57,1.5,96.68,1.5Z"/>
    <g class="cls-4">
      <rect class="cls-8" x="3.79" y="59.01" width="141.31" height="36.23"/>
      <rect class="cls-8" x="-5.32" y="105.69" width="141.31" height="16.75"/>
      <rect class="cls-7" x="-1.56" y="28.21" width="141.31" height="18.12"/>
      <rect class="cls-6" x="-1.56" y="-.27" width="141.31" height="18.12"/>
    </g>
    <path class="cls-2" d="m96.68,1.5c-10.77,0-20.53,4.3-27.68,11.27C61.85,5.8,52.09,1.5,41.32,1.5,19.42,1.5-.54,19.36,1.67,41.15s55.36,75.36,67.33,75.36c13.48,0,63.36-49.79,67.33-75.36C139.68,19.51,118.57,1.5,96.68,1.5Z"/>
  </g>
</svg>