<?xml version="1.0" encoding="UTF-8"?>
<svg id="Capa_2" data-name="Capa 2" xmlns="http://www.w3.org/2000/svg" viewBox="0 0 341.1 189.54">
  <defs>
    <style>
      .cls-1 {
        fill: #fb5d23;
      }

      .cls-2 {
        fill: #ffc7da;
      }
    </style>
  </defs>
  <g id="Capa_1-2" data-name="Capa 1">
    <path class="cls-1" d="m339.93,69.92c-.78-.52-2.18-.78-4.18-.78-2.88,0-5.03.57-6.47,1.7-1.44,1.13-2.51,3.01-3.2,5.62-2.09,7.76-4.25,14.3-6.47,19.61-2.22,5.32-4.31,9.28-6.28,11.9-1.96,2.61-3.59,3.92-4.9,3.92-1.83,0-2.75-1.65-2.75-4.97,0-2.09.26-4.77.78-8.04.52-3.27,1.13-6.69,1.83-10.26.52-2.61,1.22-5.53,2.09-8.76.96-4.01,1.44-6.36,1.44-7.06,0-1.22-.37-2.13-1.11-2.75-.74-.61-2.07-.91-3.99-.91-3.4,0-5.88.57-7.45,1.7-1.57,1.13-2.79,3.01-3.66,5.62-2.01,6.1-3.44,11.88-4.31,17.32-.64,3.97-1.03,8.23-1.2,12.78-2.59,2.92-4.77,5.14-6.51,6.64-2.44,2.09-4.84,3.14-7.19,3.14-1.83,0-3.33-1.09-4.51-3.27-1.18-2.18-1.94-5.8-2.29-10.85,8.02-13.77,14.42-27.19,19.22-40.27,4.79-13.07,7.19-24.49,7.19-34.25,0-6.88-1.24-12.03-3.73-15.43s-5.6-5.1-9.35-5.1c-7.58,0-13.71,5.99-18.37,17.98-4.66,11.98-7.82,26.43-9.48,43.34-6.45.7-12.27,2.94-17.45,6.73-5.19,3.79-9.26,8.67-12.22,14.64-2.86,5.77-4.33,12.01-4.43,18.71-1.74,1.89-3.25,3.42-4.53,4.56-2.4,2.14-4.47,3.2-6.21,3.2-2.53,0-3.79-1.74-3.79-5.23,0-2.44.83-7.45,2.48-15.03,1.92-8.89,2.88-15.03,2.88-18.43,0-5.66-2.83-8.5-8.5-8.5-2.88,0-6.04,1-9.48,3.01-3.44,2.01-6.95,5.36-10.52,10.07-3.57,4.71-6.8,10.81-9.67,18.3.35-3.83.78-7.06,1.31-9.67.52-2.61,1.22-5.66,2.09-9.15,1.31-4.88,1.96-8.02,1.96-9.41,0-1.22-.35-2.05-1.05-2.48-.7-.44-1.92-.65-3.66-.65-3.23,0-5.73.59-7.52,1.76-1.79,1.18-3.07,3.03-3.86,5.56-3,9.48-4.58,19.45-4.79,29.9-2.58,2.96-4.74,5.22-6.45,6.77-2.35,2.14-4.36,3.2-6.01,3.2-1.05,0-1.9-.39-2.55-1.18-.65-.78-.98-1.83-.98-3.14,0-3.92,1-10.89,3.01-20.92,1.31-6.88,1.96-11.24,1.96-13.07,0-3.05-2.14-4.58-6.41-4.58-2.01,0-3.92.18-5.75.52-.44-1.92-.98-3.25-1.63-3.99-.65-.74-1.94-1.11-3.86-1.11-6.01,0-11.7,1.9-17.06,5.69-5.36,3.79-9.65,8.8-12.88,15.03-3.01,5.82-4.6,11.98-4.8,18.45-5.35,2.08-10.31,3.69-14.88,4.82-5.8,1.44-11.53,2.16-17.19,2.16-11.42,0-20.05-2.85-25.88-8.56-5.84-5.71-8.76-13.79-8.76-24.25s1.61-18.67,4.84-25.95c3.22-7.28,7.45-12.79,12.68-16.54,5.23-3.75,10.72-5.62,16.47-5.62,8.45,0,12.68,3.97,12.68,11.9,0,1.57-.26,3.66-.78,6.28-.35,2.09-.52,3.53-.52,4.31,0,2.18.7,3.84,2.09,4.97,1.39,1.13,3.31,1.7,5.75,1.7,3.48,0,6.16-1.61,8.04-4.84,1.87-3.22,2.81-7.49,2.81-12.81,0-7.93-2.44-14.32-7.32-19.15-4.88-4.84-12.03-7.26-21.44-7.26-10.11,0-19.31,2.72-27.58,8.17-8.28,5.45-14.84,13.14-19.67,23.07-4.84,9.94-7.26,21.31-7.26,34.12,0,9.24,2.05,17.34,6.14,24.32,4.1,6.97,9.98,12.35,17.65,16.15,7.67,3.79,16.69,5.69,27.06,5.69,6.01,0,12.35-.63,19.02-1.9s13.09-3.25,19.28-5.95c.05-.02.09-.04.14-.06.44.7.91,1.39,1.43,2.03,3.22,3.92,7.54,5.88,12.94,5.88,6.88,0,12.59-3.66,17.13-10.98,1.22,3.4,3.03,6.08,5.42,8.04,2.4,1.96,5.03,2.94,7.91,2.94,3.75,0,7.63-1.52,11.64-4.58,1.57-1.2,3.11-2.5,4.62-3.92.27,1.23.57,2.33.94,3.26,1.35,3.49,3.68,5.23,6.99,5.23,2.7,0,4.68-.72,5.95-2.16,1.26-1.44,2.37-4.2,3.33-8.3,1.31-5.32,3.03-10.37,5.16-15.16,2.13-4.79,4.23-8.65,6.28-11.57,2.05-2.92,3.64-4.38,4.77-4.38.96,0,1.44.7,1.44,2.09,0,2.09-.57,5.88-1.7,11.37-1.22,6.27-1.83,10.63-1.83,13.07,0,4.88,1.13,8.61,3.4,11.18,2.27,2.57,5.62,3.86,10.07,3.86,5.49,0,10.39-1.48,14.71-4.44,1.87-1.28,3.67-2.73,5.43-4.32.59.99,1.25,1.94,2.02,2.81,3.44,3.97,7.82,5.95,13.14,5.95,3.66,0,6.86-.78,9.61-2.35s5.95-4.66,9.61-9.28c3.48,7.76,8.54,11.63,15.16,11.63,4.18,0,8.41-1.55,12.68-4.64,1.88-1.36,3.69-2.85,5.43-4.46.53,1.31,1.18,2.54,1.96,3.67,2.48,3.62,5.69,5.43,9.61,5.43,3.48,0,6.8-1.63,9.94-4.9,3.14-3.27,5.58-8.04,7.32-14.32-.78,6.01-1.48,10.63-2.09,13.86l-.39,3.01c-9.33,7.15-16.54,13.49-21.64,19.02-5.1,5.53-8.59,10.44-10.46,14.71-1.87,4.27-2.81,8.45-2.81,12.55,0,4.44,1.39,8.04,4.18,10.78,2.79,2.75,6.41,4.12,10.85,4.12,9.41,0,16.95-6.54,22.62-19.61,5.66-13.07,10.11-30.81,13.33-53.21.35-2.27,1.52-9.54,3.53-21.83,2.27-12.81,3.4-20.26,3.4-22.35,0-1.22-.39-2.09-1.18-2.61Zm-67.65-18.04c1.18-9.5,2.59-17.19,4.25-23.07,1.65-5.88,3.31-8.82,4.97-8.82.78,0,1.46.92,2.03,2.75.57,1.83.85,4.4.85,7.71,0,12.9-4.88,29.98-14.64,51.25.52-10.37,1.37-20.31,2.55-29.81Zm-145.83,53.21c-.78,3.75-2.05,6.76-3.79,9.02-1.74,2.27-3.57,3.4-5.49,3.4s-3.42-.65-4.51-1.96c-1.09-1.31-1.63-3.31-1.63-6.01,0-4.88.92-9.5,2.75-13.86,1.83-4.36,4.29-7.86,7.39-10.52,3.09-2.66,6.47-4.03,10.13-4.12l-4.84,24.05Zm122.36,10.39c-1.66,1.35-3.31,2.03-4.97,2.03-4.36,0-6.54-3.18-6.54-9.54,0-6.01,1.59-11.48,4.77-16.41,3.18-4.92,7.17-8.13,11.96-9.61-.18,4.71-.26,8.11-.26,10.2,0,5.84.43,11.11,1.31,15.82-2.53,3.66-4.62,6.17-6.28,7.52Zm58.18,53.8c-2.7,5.05-5.14,7.58-7.32,7.58-1.31,0-2.24-.48-2.81-1.44-.57-.96-.85-2.18-.85-3.66,0-3.49,1.5-7.56,4.51-12.22,3.01-4.66,7.86-9.83,14.58-15.49-2.7,11.77-5.4,20.18-8.11,25.23Z"/>
    <g>
      <path class="cls-2" d="m332.02,63.64c-.78-.52-2.18-.78-4.18-.78-2.88,0-5.03.57-6.47,1.7-1.44,1.13-2.51,3.01-3.2,5.62-2.09,7.76-4.25,14.3-6.47,19.61-2.22,5.32-4.31,9.28-6.28,11.9-1.96,2.61-3.59,3.92-4.9,3.92-1.83,0-2.75-1.65-2.75-4.97,0-2.09.26-4.77.78-8.04.52-3.27,1.13-6.69,1.83-10.26.52-2.61,1.22-5.53,2.09-8.76.96-4.01,1.44-6.36,1.44-7.06,0-1.22-.37-2.13-1.11-2.75-.74-.61-2.07-.91-3.99-.91-3.4,0-5.88.57-7.45,1.7-1.57,1.13-2.79,3.01-3.66,5.62-2.01,6.1-3.44,11.88-4.31,17.32-.64,3.97-1.03,8.23-1.2,12.78-2.59,2.92-4.77,5.14-6.51,6.64-2.44,2.09-4.84,3.14-7.19,3.14-1.83,0-3.33-1.09-4.51-3.27-1.18-2.18-1.94-5.8-2.29-10.85,8.02-13.77,14.42-27.19,19.22-40.27,4.79-13.07,7.19-24.49,7.19-34.25,0-6.88-1.24-12.03-3.73-15.43-2.48-3.4-5.6-5.1-9.35-5.1-7.58,0-13.71,5.99-18.37,17.98-4.66,11.98-7.82,26.43-9.48,43.34-6.45.7-12.27,2.94-17.45,6.73-5.19,3.79-9.26,8.67-12.22,14.64-2.86,5.77-4.33,12.01-4.43,18.71-1.74,1.89-3.25,3.42-4.53,4.56-2.4,2.14-4.47,3.2-6.21,3.2-2.53,0-3.79-1.74-3.79-5.23,0-2.44.83-7.45,2.48-15.03,1.92-8.89,2.88-15.03,2.88-18.43,0-5.66-2.83-8.5-8.5-8.5-2.88,0-6.04,1-9.48,3.01-3.44,2.01-6.95,5.36-10.52,10.07-3.57,4.71-6.8,10.81-9.67,18.3.35-3.83.78-7.06,1.31-9.67.52-2.61,1.22-5.66,2.09-9.15,1.31-4.88,1.96-8.02,1.96-9.41,0-1.22-.35-2.05-1.05-2.48-.7-.44-1.92-.65-3.66-.65-3.23,0-5.73.59-7.52,1.76-1.79,1.18-3.07,3.03-3.86,5.56-3,9.48-4.58,19.45-4.79,29.9-2.58,2.95-4.74,5.22-6.45,6.77-2.35,2.14-4.36,3.2-6.01,3.2-1.05,0-1.9-.39-2.55-1.18s-.98-1.83-.98-3.14c0-3.92,1-10.89,3.01-20.92,1.31-6.88,1.96-11.24,1.96-13.07,0-3.05-2.14-4.58-6.41-4.58-2.01,0-3.92.18-5.75.52-.44-1.92-.98-3.25-1.63-3.99-.65-.74-1.94-1.11-3.86-1.11-6.01,0-11.7,1.9-17.06,5.69-5.36,3.79-9.65,8.8-12.88,15.03-3.01,5.82-4.6,11.97-4.8,18.44-5.35,2.08-10.32,3.7-14.88,4.83-5.8,1.44-11.53,2.16-17.19,2.16-11.42,0-20.05-2.85-25.88-8.56-5.84-5.71-8.76-13.79-8.76-24.25s1.61-18.67,4.84-25.95c3.22-7.28,7.45-12.79,12.68-16.54,5.23-3.75,10.72-5.62,16.47-5.62,8.45,0,12.68,3.97,12.68,11.9,0,1.57-.26,3.66-.78,6.28-.35,2.09-.52,3.53-.52,4.31,0,2.18.7,3.84,2.09,4.97,1.39,1.13,3.31,1.7,5.75,1.7,3.48,0,6.16-1.61,8.04-4.84,1.87-3.22,2.81-7.49,2.81-12.81,0-7.93-2.44-14.32-7.32-19.15-4.88-4.84-12.03-7.26-21.44-7.26-10.11,0-19.31,2.72-27.58,8.17-8.28,5.45-14.84,13.14-19.67,23.07C3.3,54.09.88,65.47.88,78.28c0,9.24,2.05,17.34,6.14,24.32,4.1,6.97,9.98,12.35,17.65,16.15,7.67,3.79,16.69,5.69,27.06,5.69,6.01,0,12.35-.63,19.02-1.9s13.09-3.25,19.28-5.95c.05-.02.09-.05.13-.07.44.7.91,1.39,1.43,2.03,3.22,3.92,7.54,5.88,12.94,5.88,6.88,0,12.59-3.66,17.13-10.98,1.22,3.4,3.03,6.08,5.42,8.04,2.4,1.96,5.03,2.94,7.91,2.94,3.75,0,7.63-1.52,11.64-4.58,1.57-1.2,3.1-2.53,4.61-3.95.27,1.25.58,2.35.94,3.29,1.35,3.49,3.68,5.23,6.99,5.23,2.7,0,4.68-.72,5.95-2.16,1.26-1.44,2.37-4.2,3.33-8.3,1.31-5.32,3.03-10.37,5.16-15.16,2.13-4.79,4.23-8.65,6.28-11.57,2.05-2.92,3.64-4.38,4.77-4.38.96,0,1.44.7,1.44,2.09,0,2.09-.57,5.88-1.7,11.37-1.22,6.27-1.83,10.63-1.83,13.07,0,4.88,1.13,8.61,3.4,11.18,2.27,2.57,5.62,3.86,10.07,3.86,5.49,0,10.39-1.48,14.71-4.44,1.86-1.28,3.66-2.75,5.42-4.33.6,1,1.26,1.95,2.03,2.83,3.44,3.97,7.82,5.95,13.14,5.95,3.66,0,6.86-.78,9.61-2.35s5.95-4.66,9.61-9.28c3.48,7.76,8.54,11.63,15.16,11.63,4.18,0,8.41-1.55,12.68-4.64,1.88-1.36,3.68-2.87,5.43-4.48.54,1.32,1.18,2.55,1.96,3.69,2.48,3.62,5.69,5.43,9.61,5.43,3.48,0,6.8-1.63,9.94-4.9,3.14-3.27,5.58-8.04,7.32-14.32-.78,6.01-1.48,10.63-2.09,13.86l-.39,3.01c-9.33,7.15-16.54,13.49-21.64,19.02-5.1,5.53-8.59,10.44-10.46,14.71-1.87,4.27-2.81,8.45-2.81,12.55,0,4.44,1.39,8.04,4.18,10.78,2.79,2.75,6.41,4.12,10.85,4.12,9.41,0,16.95-6.54,22.62-19.61,5.66-13.07,10.11-30.81,13.33-53.21.35-2.27,1.52-9.54,3.53-21.83,2.27-12.81,3.4-20.26,3.4-22.35,0-1.22-.39-2.09-1.18-2.61Zm-67.65-18.04c1.18-9.5,2.59-17.19,4.25-23.07,1.65-5.88,3.31-8.82,4.97-8.82.78,0,1.46.92,2.03,2.75.57,1.83.85,4.4.85,7.71,0,12.9-4.88,29.98-14.64,51.25.52-10.37,1.37-20.31,2.55-29.81Zm-145.83,53.21c-.78,3.75-2.05,6.76-3.79,9.02-1.74,2.27-3.57,3.4-5.49,3.4s-3.42-.65-4.51-1.96c-1.09-1.31-1.63-3.31-1.63-6.01,0-4.88.92-9.5,2.75-13.86,1.83-4.36,4.29-7.86,7.39-10.52,3.09-2.66,6.47-4.03,10.13-4.12l-4.84,24.05Zm122.36,10.39c-1.66,1.35-3.31,2.03-4.97,2.03-4.36,0-6.54-3.18-6.54-9.54,0-6.01,1.59-11.48,4.77-16.41,3.18-4.92,7.17-8.13,11.96-9.61-.18,4.71-.26,8.11-.26,10.2,0,5.84.43,11.11,1.31,15.82-2.53,3.66-4.62,6.17-6.28,7.52Zm58.18,53.8c-2.7,5.05-5.14,7.58-7.32,7.58-1.31,0-2.24-.48-2.81-1.44-.57-.96-.85-2.18-.85-3.66,0-3.49,1.5-7.56,4.51-12.22,3.01-4.66,7.86-9.83,14.58-15.49-2.7,11.77-5.41,20.18-8.11,25.23Z"/>
      <path class="cls-1" d="m290.32,184.14c-4.66,0-8.52-1.47-11.47-4.37-2.95-2.9-4.45-6.74-4.45-11.42,0-4.2.97-8.55,2.89-12.91,1.9-4.34,5.48-9.37,10.62-14.95,5.06-5.49,12.28-11.85,21.46-18.9l.34-2.64c.3-1.59.62-3.52.96-5.76-1.34,2.78-2.91,5.1-4.68,6.94-3.3,3.43-6.85,5.17-10.57,5.17-4.21,0-7.69-1.95-10.34-5.81-.57-.83-1.09-1.73-1.55-2.71-1.56,1.39-3.07,2.61-4.59,3.71-4.41,3.19-8.85,4.81-13.2,4.81-6.59,0-11.75-3.65-15.36-10.87-3.35,4.09-6.37,6.91-8.97,8.4-2.87,1.64-6.25,2.47-10.05,2.47-5.56,0-10.21-2.1-13.81-6.25-.55-.63-1.06-1.31-1.55-2.05-1.63,1.43-3.19,2.65-4.73,3.71-4.44,3.05-9.56,4.6-15.21,4.6-4.69,0-8.3-1.4-10.73-4.16-2.4-2.72-3.62-6.68-3.62-11.76,0-2.49.62-6.95,1.85-13.24,1.12-5.42,1.68-9.19,1.68-11.2,0-1.21-.36-1.21-.55-1.21-.29,0-1.44.29-4.05,4-2.01,2.86-4.09,6.7-6.19,11.42s-3.82,9.77-5.11,15.02c-1,4.27-2.16,7.11-3.53,8.67-1.43,1.63-3.66,2.46-6.61,2.46-3.7,0-6.33-1.95-7.82-5.79-.23-.58-.43-1.23-.63-1.94-1.26,1.14-2.44,2.12-3.57,2.98-7.39,5.62-14.84,6.36-20.64,1.61-2.12-1.73-3.81-4.02-5.05-6.82-4.54,6.61-10.23,9.96-16.94,9.96-5.66,0-10.24-2.09-13.63-6.21-.36-.44-.72-.92-1.09-1.48-6.15,2.63-12.47,4.55-18.91,5.77-18.31,3.46-34.41,2.18-46.64-3.87-7.79-3.85-13.85-9.4-18.02-16.49-4.16-7.07-6.27-15.41-6.27-24.76,0-12.89,2.47-24.5,7.34-34.51,4.89-10.03,11.61-17.92,19.98-23.43,8.39-5.52,17.83-8.32,28.07-8.32,9.61,0,17.03,2.53,22.06,7.51,5.03,4.99,7.58,11.64,7.58,19.78,0,5.45-.99,9.91-2.93,13.26-2.03,3.5-5,5.28-8.8,5.28-2.64,0-4.76-.64-6.31-1.9-1.6-1.3-2.42-3.2-2.42-5.65,0-.84.17-2.3.53-4.46.51-2.57.77-4.63.77-6.13,0-7.41-3.86-11.01-11.8-11.01-5.53,0-10.9,1.84-15.96,5.46-5.08,3.64-9.24,9.08-12.39,16.18-3.16,7.13-4.76,15.74-4.76,25.59s2.86,18.11,8.49,23.62c5.64,5.51,14.14,8.31,25.27,8.31,5.56,0,11.28-.72,16.98-2.13,4.3-1.07,9.08-2.61,14.23-4.59.28-6.39,1.92-12.52,4.87-18.23,3.27-6.33,7.7-11.49,13.15-15.35,5.49-3.88,11.4-5.85,17.57-5.85,2.2,0,3.68.46,4.52,1.41.65.74,1.19,1.91,1.63,3.56,1.64-.26,3.35-.39,5.09-.39,6.03,0,7.29,2.97,7.29,5.46,0,1.9-.65,6.23-1.98,13.24-1.99,9.92-2.99,16.9-2.99,20.75,0,1.09.26,1.95.78,2.57,1.37,1.65,3.92.95,7.29-2.11,1.62-1.47,3.69-3.64,6.16-6.45.24-10.42,1.86-20.45,4.83-29.83.84-2.71,2.26-4.74,4.21-6.03,1.92-1.27,4.62-1.91,8-1.91,1.93,0,3.28.26,4.13.79.97.61,1.46,1.7,1.46,3.23s-.65,4.64-1.99,9.64c-.86,3.42-1.56,6.49-2.08,9.1-.21,1.03-.4,2.16-.58,3.38,2.27-4.99,4.74-9.25,7.37-12.72,3.63-4.78,7.25-8.24,10.78-10.3,3.56-2.08,6.9-3.13,9.92-3.13,6.14,0,9.38,3.24,9.38,9.38,0,3.49-.95,9.58-2.9,18.62-1.64,7.48-2.46,12.48-2.46,14.85,0,3.85,1.55,4.34,2.91,4.34,1.51,0,3.4-1,5.62-2.98,1.18-1.05,2.6-2.48,4.24-4.25.14-6.7,1.66-13.01,4.51-18.75,3.01-6.07,7.22-11.11,12.49-14.96,5.09-3.72,10.86-6.01,17.16-6.81,1.67-16.6,4.86-31.02,9.46-42.86,4.78-12.3,11.24-18.54,19.19-18.54,4.03,0,7.41,1.84,10.06,5.46,2.59,3.54,3.9,8.9,3.9,15.95,0,9.82-2.44,21.44-7.25,34.56-4.76,12.99-11.2,26.5-19.15,40.17.35,4.76,1.07,8.2,2.16,10.22,1.02,1.89,2.24,2.8,3.73,2.8,2.12,0,4.35-.98,6.61-2.92,1.65-1.41,3.74-3.54,6.21-6.31.18-4.49.58-8.72,1.2-12.57.87-5.47,2.34-11.34,4.35-17.46.93-2.78,2.27-4.82,3.98-6.06,1.74-1.26,4.35-1.87,7.97-1.87,2.15,0,3.63.36,4.55,1.11.95.79,1.43,1.94,1.43,3.43,0,.49-.15,1.78-1.46,7.26-.87,3.21-1.57,6.14-2.08,8.73-.69,3.51-1.3,6.95-1.82,10.23-.51,3.21-.77,5.87-.77,7.9,0,4.08,1.4,4.08,1.86,4.08.57,0,1.87-.46,4.2-3.57,1.91-2.54,3.98-6.48,6.17-11.71,2.2-5.25,4.36-11.82,6.43-19.5.74-2.79,1.92-4.83,3.51-6.08,1.59-1.25,3.96-1.89,7.02-1.89,2.2,0,3.73.3,4.67.93h0c1.04.7,1.57,1.82,1.57,3.35,0,2.16-1.12,9.52-3.41,22.51-2,12.27-3.18,19.55-3.53,21.81-3.22,22.36-7.73,40.34-13.4,53.42-5.79,13.37-13.68,20.14-23.43,20.14Zm21.5-79.17l1.73.35c-.78,5.98-1.49,10.66-2.1,13.91l-.43,3.32-.29.22c-9.24,7.08-16.48,13.44-21.52,18.92-5.01,5.44-8.47,10.3-10.3,14.46-1.82,4.14-2.74,8.24-2.74,12.2,0,4.18,1.32,7.6,3.92,10.15,2.6,2.56,6.05,3.86,10.23,3.86,8.98,0,16.32-6.42,21.8-19.08,5.61-12.94,10.07-30.77,13.27-52.98.35-2.27,1.53-9.56,3.53-21.85,2.25-12.72,3.39-20.19,3.39-22.21,0-.91-.26-1.53-.78-1.88h0c-.43-.29-1.43-.64-3.69-.64-2.66,0-4.65.51-5.92,1.51-1.28,1.01-2.25,2.74-2.9,5.15-2.09,7.76-4.28,14.4-6.51,19.72-2.24,5.36-4.39,9.42-6.38,12.09-2.19,2.92-3.97,4.28-5.61,4.28s-3.63-1.02-3.63-5.85c0-2.13.27-4.88.8-8.18.53-3.3,1.15-6.76,1.84-10.29.53-2.63,1.23-5.6,2.11-8.82,1.22-5.12,1.41-6.48,1.41-6.83,0-.95-.26-1.63-.79-2.06-.39-.32-1.31-.71-3.42-.71-3.19,0-5.53.52-6.93,1.53-1.41,1.02-2.53,2.76-3.34,5.18-1.98,6.02-3.42,11.8-4.28,17.18-.62,3.87-1.02,8.14-1.19,12.67v.32s-.22.24-.22.24c-2.62,2.95-4.84,5.21-6.6,6.72-2.59,2.22-5.21,3.35-7.77,3.35-2.17,0-3.95-1.26-5.29-3.73-1.25-2.31-2.03-5.98-2.39-11.21l-.02-.27.14-.23c7.95-13.66,14.4-27.16,19.15-40.13,4.73-12.92,7.14-24.34,7.14-33.95,0-6.66-1.2-11.68-3.56-14.91-2.33-3.19-5.15-4.74-8.63-4.74-7.15,0-13.05,5.86-17.54,17.41-4.61,11.86-7.78,26.36-9.42,43.1l-.07.72-.72.08c-6.27.68-11.99,2.89-17.03,6.57-5.05,3.69-9.07,8.51-11.95,14.32-2.78,5.6-4.24,11.77-4.33,18.33v.34s-.23.25-.23.25c-1.77,1.93-3.32,3.49-4.59,4.62-2.59,2.31-4.81,3.43-6.8,3.43-2.13,0-4.68-1.06-4.68-6.11,0-2.53.82-7.51,2.51-15.22,1.89-8.79,2.85-14.93,2.85-18.24,0-5.19-2.42-7.61-7.61-7.61-2.7,0-5.74.97-9.03,2.89-3.33,1.94-6.78,5.25-10.26,9.84-3.5,4.61-6.72,10.7-9.55,18.09l-2.28,5.94.57-6.34c.35-3.83.79-7.12,1.32-9.77.53-2.63,1.23-5.73,2.1-9.19,1.6-5.97,1.93-8.3,1.93-9.2s-.21-1.47-.63-1.73c-.38-.24-1.24-.52-3.19-.52-3.03,0-5.4.54-7.03,1.62-1.6,1.06-2.78,2.77-3.5,5.08-2.95,9.31-4.54,19.29-4.75,29.66v.32s-.22.24-.22.24c-2.61,2.99-4.8,5.29-6.52,6.84-2.54,2.31-4.7,3.43-6.61,3.43-1.32,0-2.4-.5-3.23-1.49-.79-.94-1.18-2.19-1.18-3.7,0-3.97,1.02-11.06,3.02-21.09,1.29-6.79,1.94-11.13,1.94-12.9,0-1.58-.57-3.69-5.52-3.69-1.93,0-3.81.17-5.59.51l-.84.16-.19-.83c-.5-2.2-1.06-3.17-1.44-3.6-.33-.37-1.15-.81-3.19-.81-5.8,0-11.37,1.86-16.55,5.52-5.22,3.69-9.46,8.65-12.6,14.72-2.92,5.65-4.51,11.73-4.7,18.06l-.02.59-.55.21c-5.42,2.11-10.46,3.74-14.98,4.87-5.84,1.45-11.7,2.18-17.4,2.18-11.6,0-20.52-2.97-26.5-8.82-5.99-5.85-9.03-14.22-9.03-24.88,0-10.1,1.65-18.95,4.91-26.31,3.27-7.39,7.64-13.07,12.97-16.9,5.36-3.84,11.08-5.79,16.99-5.79,9,0,13.57,4.3,13.57,12.78,0,1.62-.27,3.79-.8,6.45-.33,2-.51,3.41-.51,4.14,0,1.92.58,3.32,1.76,4.28,1.22,1,2.97,1.5,5.2,1.5,3.18,0,5.56-1.44,7.28-4.4,1.79-3.07,2.69-7.23,2.69-12.37,0-7.65-2.37-13.88-7.06-18.52-4.69-4.64-11.69-7-20.82-7-9.89,0-19,2.7-27.1,8.03-8.11,5.33-14.62,12.98-19.37,22.72-4.76,9.77-7.17,21.12-7.17,33.73,0,9.04,2.03,17.07,6.02,23.87,3.99,6.79,9.8,12.1,17.28,15.8,11.88,5.87,27.61,7.11,45.53,3.72,6.56-1.24,12.99-3.22,19.09-5.89l.7-.31.54.58c.49.78.92,1.39,1.37,1.94,3.08,3.74,7.08,5.56,12.26,5.56,6.53,0,12.03-3.55,16.37-10.56l.97-1.56.62,1.73c1.16,3.23,2.89,5.81,5.15,7.65,5.18,4.24,11.74,3.45,18.45-1.65,1.4-1.07,2.89-2.34,4.54-3.89l1.14-1.07.33,1.53c.26,1.23.57,2.3.9,3.16,1.22,3.14,3.23,4.67,6.17,4.67,2.42,0,4.2-.62,5.28-1.86,1.16-1.32,2.22-3.99,3.14-7.92,1.32-5.35,3.07-10.51,5.22-15.32,2.15-4.82,4.29-8.76,6.36-11.72,2.27-3.24,4.02-4.76,5.49-4.76.7,0,2.32.29,2.32,2.98,0,2.16-.56,5.94-1.72,11.55-1.2,6.17-1.81,10.51-1.81,12.89,0,4.64,1.07,8.2,3.18,10.59,2.08,2.36,5.24,3.56,9.4,3.56,5.28,0,10.06-1.44,14.21-4.29,1.72-1.18,3.47-2.58,5.33-4.26l.8-.72.55.93c.6,1.02,1.24,1.9,1.93,2.7,3.3,3.8,7.38,5.64,12.47,5.64,3.49,0,6.57-.75,9.17-2.24,2.64-1.51,5.78-4.56,9.35-9.06l.9-1.14.6,1.33c3.36,7.48,8.06,11.11,14.36,11.11,3.97,0,8.07-1.51,12.16-4.47,1.76-1.27,3.51-2.72,5.34-4.41l.94-.86.48,1.18c.53,1.3,1.16,2.49,1.87,3.52,2.33,3.39,5.23,5.04,8.88,5.04,3.22,0,6.35-1.56,9.3-4.63,3.02-3.14,5.41-7.83,7.11-13.94Zm-20.06,66.49c-2.04,0-3.07-1.02-3.57-1.87-.65-1.09-.97-2.48-.97-4.11,0-3.64,1.56-7.92,4.65-12.7,3.04-4.72,8-9.99,14.75-15.69l2.03-1.71-.59,2.58c-2.71,11.79-5.46,20.35-8.19,25.45h0c-2.9,5.42-5.55,8.05-8.1,8.05Zm13.94-31.25c-5.57,4.9-9.72,9.44-12.35,13.53-2.9,4.49-4.37,8.45-4.37,11.74,0,1.31.24,2.39.73,3.21.25.43.74,1,2.05,1s3.4-1.23,6.54-7.11h0c2.45-4.58,4.93-12.1,7.4-22.37Zm-69.77-28.1c-3.39,0-7.42-1.81-7.42-10.43,0-6.16,1.65-11.84,4.91-16.89,3.28-5.08,7.47-8.43,12.44-9.97l1.19-.37-.05,1.25c-.17,4.63-.26,8.05-.26,10.16,0,5.77.44,11.03,1.29,15.66l.07.36-.21.3c-2.6,3.77-4.71,6.29-6.44,7.7h0c-1.81,1.48-3.67,2.23-5.53,2.23Zm9.27-35.18c-4.05,1.56-7.51,4.53-10.29,8.83-3.07,4.75-4.63,10.11-4.63,15.93,0,8.66,4.25,8.66,5.65,8.66s2.92-.61,4.41-1.83h0c1.53-1.25,3.52-3.62,5.9-7.03-.83-4.64-1.26-9.89-1.26-15.62,0-1.93.07-4.93.21-8.94Zm-135.94,35.18c-2.18,0-3.93-.77-5.19-2.28-1.22-1.46-1.84-3.68-1.84-6.58,0-4.97.95-9.75,2.81-14.2,1.87-4.46,4.44-8.12,7.63-10.85,3.24-2.78,6.83-4.24,10.69-4.33l1.11-.03-5.06,25.15c-.81,3.86-2.14,7.02-3.96,9.38-1.91,2.48-3.99,3.74-6.19,3.74Zm13.03-36.4c-3.02.31-5.86,1.6-8.46,3.83-2.97,2.56-5.38,5.99-7.15,10.2-1.78,4.23-2.68,8.78-2.68,13.51,0,2.48.48,4.31,1.43,5.45.92,1.11,2.17,1.64,3.83,1.64s3.23-1.03,4.79-3.05c1.65-2.15,2.87-5.06,3.63-8.66l4.61-22.92Zm138.42,4.25l.23-4.59c.52-10.34,1.38-20.39,2.56-29.87,1.18-9.5,2.61-17.31,4.27-23.21,1.84-6.55,3.64-9.47,5.82-9.47,1.83,0,2.61,2.53,2.87,3.37.59,1.91.89,4.59.89,7.97,0,12.97-4.95,30.33-14.72,51.62l-1.92,4.18Zm12.88-65.37c-.3,0-1.93.39-4.12,8.18-1.64,5.81-3.06,13.53-4.22,22.94h0c-.99,7.97-1.75,16.36-2.28,24.98,8.37-19.07,12.61-34.71,12.61-46.53,0-3.2-.27-5.71-.81-7.45-.64-2.06-1.18-2.12-1.18-2.12Z"/>
    </g>
  </g>
</svg>