<?xml version="1.0" encoding="UTF-8"?>
<svg id="Capa_2" data-name="Capa 2" xmlns="http://www.w3.org/2000/svg" viewBox="0 0 82.4 61.35">
  <defs>
    <style>
      .cls-1 {
        fill: #fb5d23;
      }
    </style>
  </defs>
  <g id="Capa_1-2" data-name="Capa 1">
    <g id="Capa_1-2" data-name="Capa 1-2">
      <path class="cls-1" d="m81.99,6.9c-.37-.45-.92-.72-1.5-.72H21.42l-1.79-4.91c-.28-.76-1-1.27-1.82-1.27H1.93C.87,0,0,.87,0,1.93s.87,1.93,1.93,1.93h14.53l13.19,36.24-3.51,13.63c-.15.58-.02,1.19.34,1.67.37.47.93.75,1.53.75h4.48c.85,3,3.6,5.2,6.87,5.2s6.02-2.2,6.87-5.2h12.44c.85,3,3.6,5.2,6.87,5.2,3.93,0,7.13-3.2,7.13-7.13s-3.2-7.13-7.13-7.13c-3.26,0-6.02,2.2-6.87,5.2h-12.44c-.85-3-3.6-5.2-6.87-5.2s-6.02,2.2-6.87,5.2h-1.99l2.66-10.34h40.57c.91,0,1.7-.64,1.89-1.53l6.74-31.89c.12-.57-.02-1.16-.39-1.62h.02Zm-16.44,44.05c1.8,0,3.27,1.47,3.27,3.27s-1.47,3.27-3.27,3.27-3.27-1.47-3.27-3.27,1.47-3.27,3.27-3.27Zm-26.18,0c1.8,0,3.27,1.47,3.27,3.27s-1.47,3.27-3.27,3.27-3.13-1.34-3.26-3.03c0-.08.02-.16.02-.24s0-.16-.02-.24c.12-1.69,1.53-3.03,3.26-3.03Zm18.27-12.88l-4.82-12.11h8.7l4.82,12.11h-8.7Zm-12.86,0l-4.82-12.11h8.7l4.82,12.11h-8.7Zm-16.16-12.11h7.18l4.82,12.11h-7.59l-4.41-12.11Zm13.71-15.92l4.79,12.05h-8.7l-4.79-12.05s8.7,0,8.7,0Zm8.95,12.05l-4.79-12.05h8.7l4.79,12.05h-8.7Zm8.06-12.05h8.7l4.79,12.05h-8.7l-4.79-12.05Zm16.71,9.68l-3.85-9.68h5.9l-2.05,9.68ZM29.47,10.05l4.79,12.05h-7.05l-4.39-12.05h6.65Zm42.71,28.02h-1.68l-4.82-12.11h8.7l.24.6-2.43,11.51h0Z"/>
    </g>
  </g>
</svg>